<?xml version="1.0" encoding="UTF-8"?>
<svg width="22px" height="24px" viewBox="0 0 22 24" version="1.1" xmlns="http://www.w3.org/2000/svg" xmlns:xlink="http://www.w3.org/1999/xlink">
    <!-- Generator: Sketch 43.2 (39069) - http://www.bohemiancoding.com/sketch -->
    <title>ban</title>
    <desc>Created with Sketch.</desc>
    <defs></defs>
    <g id="Amoicons" stroke="none" stroke-width="1" fill="none" fill-rule="evenodd">
        <g id="ban" fill="#000000">
            <path d="M11,22 C16.5228475,22 21,17.5228475 21,12 C21,6.4771525 16.5228475,2 11,2 C5.4771525,2 1,6.4771525 1,12 C1,17.5228475 5.4771525,22 11,22 Z M4.67074033,16.8840992 C2.22824255,13.7456697 2.44935631,9.20598831 5.33408162,6.321263 C8.21880693,3.4365377 12.7584883,3.21542393 15.8969178,5.65792172 L4.67074033,16.8840992 Z M6.0411884,18.3420783 L17.2673659,7.11590077 C19.7098637,10.2543303 19.4887499,14.7940117 16.6040246,17.678737 C13.7192993,20.5634623 9.17961797,20.7845761 6.0411884,18.3420783 Z" id="Shape"></path>
        </g>
    </g>
</svg>