<?xml version="1.0" encoding="UTF-8"?>
<svg width="24px" height="24px" viewBox="0 0 24 24" version="1.1" xmlns="http://www.w3.org/2000/svg" xmlns:xlink="http://www.w3.org/1999/xlink">
    <!-- Generator: Sketch 42 (36781) - http://www.bohemiancoding.com/sketch -->
    <title>ban</title>
    <desc>Created with Sketch.</desc>
    <defs></defs>
    <g id="Amoicons" stroke="none" stroke-width="1" fill="none" fill-rule="evenodd">
        <g id="ban" fill="#000000">
            <path d="M12,22 C17.5228475,22 22,17.5228475 22,12 C22,6.4771525 17.5228475,2 12,2 C6.4771525,2 2,6.4771525 2,12 C2,17.5228475 6.4771525,22 12,22 Z M5.67074033,16.8840992 C3.22824255,13.7456697 3.44935631,9.20598831 6.33408162,6.321263 C9.21880693,3.4365377 13.7584883,3.21542393 16.8969178,5.65792172 L5.67074033,16.8840992 Z M7.0411884,18.3420783 L18.2673659,7.11590077 C20.7098637,10.2543303 20.4887499,14.7940117 17.6040246,17.678737 C14.7192993,20.5634623 10.179618,20.7845761 7.0411884,18.3420783 Z" id="Shape"></path>
        </g>
    </g>
</svg>