<?xml version="1.0" encoding="UTF-8"?>
<svg width="24px" height="24px" viewBox="0 0 24 24" version="1.1" xmlns="http://www.w3.org/2000/svg" xmlns:xlink="http://www.w3.org/1999/xlink">
    <!-- Generator: Sketch 43.2 (39069) - http://www.bohemiancoding.com/sketch -->
    <title>facebook</title>
    <desc>Created with Sketch.</desc>
    <defs></defs>
    <g id="Amoicons" stroke="none" stroke-width="1" fill="none" fill-rule="evenodd">
        <g id="facebook" fill-rule="nonzero" fill="#000000">
            <path d="M16.1837389,22.9787944 L21.7738539,22.9787944 C22.4397352,22.9787944 22.9823052,22.4363111 22.9823052,21.7705361 L22.9823052,2.257575 C22.9823052,1.5918 22.4397352,1.04931667 21.7738539,1.04931667 L2.25777588,1.04931667 C1.59189453,1.04931667 1.04932454,1.5918 1.04932454,2.257575 L1.04932454,21.7705361 C1.04932454,22.4363111 1.59189453,22.9787944 2.25777588,22.9787944 L12.7639038,22.9787944 L12.7639038,14.4881083 L9.90308024,14.4881083 L9.90308024,11.1756722 L12.7639038,11.1756722 L12.7639038,8.73449722 C12.7639038,5.90700833 14.4902629,4.36175278 17.0222561,4.36175278 C18.2307075,4.36175278 19.2747437,4.45216667 19.5789117,4.49326389 L19.5789117,7.45226389 L17.8278904,7.45226389 C16.4468031,7.45226389 16.1837389,8.1016 16.1837389,9.063275 L16.1837389,11.1756722 L19.4638211,11.1756722 L19.0363417,14.4881083 L16.1837389,14.4881083 L16.1837389,22.9787944 Z" id="Shape"></path>
        </g>
    </g>
</svg>