<?xml version="1.0" encoding="UTF-8"?>
<svg width="24px" height="24px" viewBox="0 0 24 24" version="1.1" xmlns="http://www.w3.org/2000/svg" xmlns:xlink="http://www.w3.org/1999/xlink">
    <!-- Generator: Sketch 43.1 (39012) - http://www.bohemiancoding.com/sketch -->
    <title>github</title>
    <desc>Created with Sketch.</desc>
    <defs></defs>
    <g id="Amoicons" stroke="none" stroke-width="1" fill="none" fill-rule="evenodd">
        <g id="github" fill="#181616">
            <path d="M11.9993123,1.02462796 C5.92510628,1.02462796 1,5.94973424 1,12.0253156 C1,16.8850931 4.15091273,21.0083739 8.52313078,22.4634877 C9.07326832,22.5638878 9.24656164,22.2379313 9.24656164,21.9463584 C9.24656164,21.6850431 9.25206302,20.9547355 9.24656164,20.0366935 C6.18710928,20.7016722 5.55307577,18.5877687 5.55307577,18.5877687 C5.05313828,17.316951 4.33245811,16.9786165 4.33245811,16.9786165 C3.33395849,16.2964459 4.40741435,16.3095117 4.40741435,16.3095117 C5.51112778,16.3872186 6.09289822,17.4434827 6.09289822,17.4434827 C7.07420605,19.1234652 8.66685421,18.6379688 9.29332333,18.3573987 C9.39372343,17.6463459 9.6784196,17.1615372 9.99268567,16.8864684 C7.55007502,16.608649 4.98230808,15.6651631 4.98230808,11.4497342 C4.98230808,10.2483714 5.41072768,9.26706357 6.11421605,8.49824637 C6.00075019,8.22042691 5.62253063,7.1015847 6.22218055,5.58664346 C6.22218055,5.58664346 7.14572393,5.29094454 9.24656164,6.71511308 C10.124031,6.47098955 11.0654539,6.34927162 12.0006877,6.34514559 C12.9352338,6.34927162 13.875969,6.47098955 14.7548137,6.71511308 C16.8556514,5.29163221 17.7778195,5.58664346 17.7778195,5.58664346 C18.3774694,7.1015847 17.9999375,8.22042691 17.8871593,8.49824637 C18.5906477,9.26706357 19.0176919,10.2483714 19.0176919,11.4497342 C19.0176919,15.6761658 16.4457989,16.6058983 13.9949362,16.8775287 C14.3896599,17.2179263 14.747937,17.8780913 14.747937,18.9040978 L14.747937,21.9491091 C14.747937,22.2434327 14.9253563,22.5687015 15.4837459,22.4621123 C19.851838,21.0049355 23,16.8837177 23,12.0253156 C23,5.94973424 18.0748937,1.02462796 11.9993123,1.02462796 Z" id="Shape"></path>
        </g>
    </g>
</svg>