<?xml version="1.0" encoding="UTF-8"?>
<svg width="37px" height="24px" viewBox="0 0 37 24" version="1.1" xmlns="http://www.w3.org/2000/svg" xmlns:xlink="http://www.w3.org/1999/xlink">
    <!-- Generator: Sketch 43.2 (39069) - http://www.bohemiancoding.com/sketch -->
    <title>google-plus</title>
    <desc>Created with Sketch.</desc>
    <defs></defs>
    <g id="Amoicons" stroke="none" stroke-width="1" fill="none" fill-rule="evenodd">
        <g id="google-plus" fill-rule="nonzero" fill="#000000">
            <path d="M11.9915058,9.82548263 L11.9915058,14.1830116 C11.9915058,14.1830116 16.2131274,14.1745174 17.9374517,14.1745174 C17.0030888,16.9945946 15.5590734,18.5320463 11.9915058,18.5320463 C8.38146718,18.5320463 5.56988417,15.6100386 5.56988417,12 C5.56988417,8.38996139 8.38996139,5.46795367 11.9915058,5.46795367 C13.9027027,5.46795367 15.1343629,6.13899614 16.2640927,7.07335907 C17.172973,6.16447876 17.0965251,6.03706564 19.3984556,3.86254826 C17.4447876,2.08725869 14.8455598,1 12,1 C5.92664093,1 1,5.92664093 1,12 C1,18.0733591 5.92664093,23 12,23 C21.0803089,23 23.2972973,15.0918919 22.5583012,9.82548263 L11.9915058,9.82548263 Z M31.6339768,9.81389961 L31.6339768,6 L28.9158301,6 L28.9158301,9.81389961 L25,9.81389961 L25,12.5320463 L28.9158301,12.5320463 L28.9158301,16.4478764 L31.6339768,16.4478764 L31.6339768,12.5320463 L35.4478764,12.5320463 L35.4478764,9.81389961 L31.6339768,9.81389961 Z" id="Shape"></path>
        </g>
    </g>
</svg>