<?xml version="1.0" encoding="UTF-8"?>
<svg width="24px" height="24px" viewBox="0 0 24 24" version="1.1" xmlns="http://www.w3.org/2000/svg" xmlns:xlink="http://www.w3.org/1999/xlink">
    <!-- Generator: Sketch 43.1 (39012) - http://www.bohemiancoding.com/sketch -->
    <title>google-plus</title>
    <desc>Created with Sketch.</desc>
    <defs></defs>
    <g id="Amoicons" stroke="none" stroke-width="1" fill="none" fill-rule="evenodd">
        <g id="google-plus" fill-rule="nonzero" fill="#000000">
            <path d="M7.62352941,11.1117647 L7.62352941,14.1294118 C7.62352941,14.1294118 10.5470588,14.1235294 11.7411765,14.1235294 C11.0941176,16.0764706 10.0941176,17.1411765 7.62352941,17.1411765 C5.12352941,17.1411765 3.17647059,15.1176471 3.17647059,12.6176471 C3.17647059,10.1176471 5.12941176,8.09411765 7.62352941,8.09411765 C8.94705882,8.09411765 9.8,8.55882353 10.5823529,9.20588235 C11.2117647,8.57647059 11.1588235,8.48823529 12.7529412,6.98235294 C11.4,5.75294118 9.6,5 7.62941176,5 C3.42352941,5 0.0117647059,8.41176471 0.0117647059,12.6176471 C0.0117647059,16.8235294 3.42352941,20.2352941 7.62941176,20.2352941 C13.9176471,20.2352941 15.4529412,14.7588235 14.9411765,11.1117647 L7.62352941,11.1117647 Z M21.3529412,11.2588235 L21.3529412,8.61764706 L19.4705882,8.61764706 L19.4705882,11.2588235 L16.7588235,11.2588235 L16.7588235,13.1411765 L19.4705882,13.1411765 L19.4705882,15.8529412 L21.3529412,15.8529412 L21.3529412,13.1411765 L23.9941176,13.1411765 L23.9941176,11.2588235 L21.3529412,11.2588235 Z" id="Shape"></path>
        </g>
    </g>
</svg>