<?xml version="1.0" encoding="UTF-8"?>
<svg width="24px" height="24px" viewBox="0 0 24 24" version="1.1" xmlns="http://www.w3.org/2000/svg" xmlns:xlink="http://www.w3.org/1999/xlink">
    <!-- Generator: Sketch 43.2 (39069) - http://www.bohemiancoding.com/sketch -->
    <title>instagram</title>
    <desc>Created with Sketch.</desc>
    <defs></defs>
    <g id="Amoicons" stroke="none" stroke-width="1" fill="none" fill-rule="evenodd">
        <g id="instagram" fill="#0A0A08">
            <path d="M11.9965516,1.00694048 C9.01005159,1.00694048 8.63557143,1.01959921 7.4626746,1.07311508 C6.29222222,1.1265 5.49284524,1.31240873 4.79338492,1.58426587 C4.07026587,1.86524603 3.45701587,2.24125397 2.84564286,2.85258333 C2.23431349,3.46395635 1.85830556,4.07720635 1.5773254,4.8003254 C1.30546825,5.49978571 1.11955952,6.2991627 1.0661746,7.46961508 C1.01265873,8.6425119 1,9.01699206 1,12.0034921 C1,14.9899484 1.01265873,15.3644286 1.0661746,16.5373254 C1.11955952,17.7077778 1.30546825,18.5071548 1.5773254,19.2066151 C1.85830556,19.9297341 2.23431349,20.5429841 2.84564286,21.1543571 C3.45701587,21.7656865 4.07026587,22.1416944 4.79338492,22.4227183 C5.49284524,22.6945317 6.29222222,22.8804405 7.4626746,22.9338254 C8.63557143,22.9873413 9.01005159,23 11.9965516,23 C14.9830079,23 15.3574881,22.9873413 16.5303849,22.9338254 C17.7008373,22.8804405 18.5002143,22.6945317 19.1996746,22.4227183 C19.9227937,22.1416944 20.5360437,21.7656865 21.1474167,21.1543571 C21.758746,20.5429841 22.134754,19.9297341 22.4157778,19.2066151 C22.6875913,18.5071548 22.8735,17.7077778 22.9268849,16.5373254 C22.9804008,15.3644286 22.9930595,14.9899484 22.9930595,12.0034921 C22.9930595,9.01699206 22.9804008,8.6425119 22.9268849,7.46961508 C22.8735,6.2991627 22.6875913,5.49978571 22.4157778,4.8003254 C22.134754,4.07720635 21.758746,3.46395635 21.1474167,2.85258333 C20.5360437,2.24125397 19.9227937,1.86524603 19.1996746,1.58426587 C18.5002143,1.31240873 17.7008373,1.1265 16.5303849,1.07311508 C15.3574881,1.01959921 14.9830079,1.00694048 11.9965516,1.00694048 Z M11.9965516,2.98829365 C14.9327222,2.98829365 15.2805317,2.9995119 16.4400714,3.05241667 C17.5122222,3.10130556 18.0944802,3.28044841 18.4819683,3.43104365 C18.9952579,3.63052778 19.3615754,3.86881746 19.7463571,4.25364286 C20.1311825,4.6384246 20.3694722,5.00474206 20.5689563,5.51803175 C20.7195516,5.90551984 20.8986944,6.48777778 20.9475833,7.55992857 C21.0004881,8.71946825 21.0117063,9.06727778 21.0117063,12.0034921 C21.0117063,14.9396627 21.0004881,15.2874722 20.9475833,16.4470119 C20.8986944,17.5191627 20.7195516,18.1014206 20.5689563,18.4889087 C20.3694722,19.0021984 20.1311825,19.3685159 19.7463571,19.7532976 C19.3615754,20.138123 18.9952579,20.3764127 18.4819683,20.5758968 C18.0944802,20.7264921 17.5122222,20.9056349 16.4400714,20.9545238 C15.2807063,21.0074286 14.9329405,21.0186468 11.9965516,21.0186468 C9.06011905,21.0186468 8.71239683,21.0074286 7.5529881,20.9545238 C6.4808373,20.9056349 5.89857937,20.7264921 5.51109127,20.5758968 C4.99780159,20.3764127 4.63148413,20.138123 4.24670238,19.7532976 C3.86192063,19.3685159 3.6235873,19.0021984 3.42410317,18.4889087 C3.27350794,18.1014206 3.09436508,17.5191627 3.04547619,16.4470119 C2.99257143,15.2874722 2.98135317,14.9396627 2.98135317,12.0034921 C2.98135317,9.06727778 2.99257143,8.71946825 3.04547619,7.55992857 C3.09436508,6.48777778 3.27350794,5.90551984 3.42410317,5.51803175 C3.6235873,5.00474206 3.86187698,4.6384246 4.24670238,4.25364286 C4.63148413,3.86881746 4.99780159,3.63052778 5.51109127,3.43104365 C5.89857937,3.28044841 6.4808373,3.10130556 7.5529881,3.05241667 C8.71252778,2.9995119 9.0603373,2.98829365 11.9965516,2.98829365 L11.9965516,2.98829365 Z M11.9965516,15.6689802 C9.97211508,15.6689802 8.33101984,14.0278849 8.33101984,12.0034921 C8.33101984,9.97905556 9.97211508,8.33796032 11.9965516,8.33796032 C14.0209444,8.33796032 15.6620397,9.97905556 15.6620397,12.0034921 C15.6620397,14.0278849 14.0209444,15.6689802 11.9965516,15.6689802 Z M11.9965516,6.35660714 C8.87783333,6.35660714 6.34966667,8.88477381 6.34966667,12.0034921 C6.34966667,15.1221667 8.87783333,17.6503333 11.9965516,17.6503333 C15.1152262,17.6503333 17.6433929,15.1221667 17.6433929,12.0034921 C17.6433929,8.88477381 15.1152262,6.35660714 11.9965516,6.35660714 L11.9965516,6.35660714 Z M19.1860992,6.13350794 C19.1860992,6.86230159 18.5952857,7.45307143 17.8664921,7.45307143 C17.1377421,7.45307143 16.5469286,6.86230159 16.5469286,6.13350794 C16.5469286,5.40471429 17.1377421,4.81390079 17.8664921,4.81390079 C18.5952857,4.81390079 19.1860992,5.40471429 19.1860992,6.13350794" id="Shape"></path>
        </g>
    </g>
</svg>