<?xml version="1.0" encoding="UTF-8"?>
<svg width="24px" height="24px" viewBox="0 0 24 24" version="1.1" xmlns="http://www.w3.org/2000/svg" xmlns:xlink="http://www.w3.org/1999/xlink">
    <!-- Generator: Sketch 43.1 (39012) - http://www.bohemiancoding.com/sketch -->
    <title>instagram</title>
    <desc>Created with Sketch.</desc>
    <defs></defs>
    <g id="Amoicons" stroke="none" stroke-width="1" fill="none" fill-rule="evenodd">
        <g id="instagram" fill="#000000">
            <path d="M22.3661856,4.73558286 C22.0856601,4.01301717 21.7116261,3.40096153 21.0995705,2.78890589 C20.4875149,2.17685025 19.8754592,1.80281625 19.1528935,1.52229074 C18.4558302,1.25026601 17.6482567,1.06324901 16.4836509,1.01224438 C15.3105442,0.96123974 14.9365102,0.944238194 11.9442382,0.944238194 C8.95196617,0.944238194 8.57793217,0.952738967 7.40482552,1.01224438 C6.23171887,1.06324901 5.43264623,1.25026601 4.73558286,1.52229074 C4.01301717,1.80281625 3.40096153,2.17685025 2.78890589,2.78890589 C2.17685025,3.40096153 1.80281625,4.01301717 1.52229074,4.73558286 C1.25026601,5.43264623 1.06324901,6.24021965 1.01224438,7.40482552 C0.96123974,8.57793217 0.944238194,8.95196617 0.944238194,11.9442382 C0.944238194,14.9365102 0.952738967,15.3105442 1.01224438,16.4836509 C1.06324901,17.6567575 1.25026601,18.4558302 1.52229074,19.1528935 C1.80281625,19.8754592 2.17685025,20.4875149 2.78890589,21.0995705 C3.40096153,21.7116261 4.01301717,22.0856601 4.73558286,22.3661856 C5.43264623,22.6382104 6.24021965,22.8252274 7.40482552,22.876232 C8.57793217,22.9272366 8.95196617,22.9442382 11.9442382,22.9442382 C14.9365102,22.9442382 15.3105442,22.9357374 16.4836509,22.876232 C17.6567575,22.8252274 18.4558302,22.6382104 19.1528935,22.3661856 C19.8754592,22.0856601 20.4875149,21.7116261 21.0995705,21.0995705 C21.7116261,20.4875149 22.0856601,19.8754592 22.3661856,19.1528935 C22.6382104,18.4558302 22.8252274,17.6482567 22.876232,16.4836509 C22.9272366,15.3105442 22.9442382,14.9365102 22.9442382,11.9442382 C22.9442382,8.95196617 22.9357374,8.57793217 22.876232,7.40482552 C22.8252274,6.23171887 22.6382104,5.43264623 22.3661856,4.73558286 Z M20.895552,16.3901424 C20.8445473,17.4612397 20.6660311,18.0477931 20.5130172,18.4303278 C20.3174994,18.9403742 20.070977,19.3144082 19.6884422,19.696943 C19.3059074,20.0794778 18.9403742,20.3174994 18.4218271,20.5215179 C18.0307915,20.6745319 17.452739,20.8530481 16.3816416,20.9040527 C15.2170357,20.9550574 14.8770048,20.9720589 11.9357374,20.9720589 C8.99447003,20.9720589 8.64593835,20.9635581 7.48983325,20.9040527 C6.41873588,20.8530481 5.83218255,20.6745319 5.44964778,20.5215179 C4.93960141,20.3260002 4.56556741,20.0794778 4.18303263,19.696943 C3.80049785,19.3144082 3.56247622,18.948875 3.35845767,18.4303278 C3.20544376,18.0392923 3.02692753,17.4612397 2.97592289,16.3901424 C2.92491826,15.2255365 2.90791671,14.8770048 2.90791671,11.9442382 C2.90791671,9.01147158 2.91641748,8.65443912 2.97592289,7.49833402 C3.02692753,6.42723665 3.20544376,5.84068333 3.35845767,5.45814855 C3.55397544,4.94810218 3.80049785,4.57406818 4.18303263,4.1915334 C4.56556741,3.80899863 4.93110064,3.57097699 5.44964778,3.36695844 C5.84068333,3.21394453 6.41873588,3.0354283 7.48983325,2.98442367 C8.65443912,2.93341903 9.00297081,2.91641748 11.9357374,2.91641748 C14.868504,2.91641748 15.2255365,2.92491826 16.3816416,2.98442367 C17.452739,3.0354283 18.0392923,3.21394453 18.4218271,3.36695844 C18.9318734,3.56247622 19.3059074,3.80899863 19.6884422,4.1915334 C20.070977,4.57406818 20.3089986,4.93960141 20.5130172,5.45814855 C20.6660311,5.8491841 20.8445473,6.42723665 20.895552,7.49833402 C20.9465566,8.66293989 20.9635581,9.01147158 20.9635581,11.9442382 C20.9635581,14.8770048 20.9465566,15.2340373 20.895552,16.3901424 Z M11.9357374,6.29122428 C8.8159538,6.29122428 6.28272351,8.82445458 6.28272351,11.9442382 C6.28272351,15.0640218 8.8159538,17.5972521 11.9357374,17.5972521 C15.055521,17.5972521 17.5887513,15.0640218 17.5887513,11.9442382 C17.5887513,8.82445458 15.055521,6.29122428 11.9357374,6.29122428 Z M17.8097714,7.38782397 C18.5374727,7.38782397 19.1273912,6.7979055 19.1273912,6.07020419 C19.1273912,5.34250288 18.5374727,4.75258441 17.8097714,4.75258441 C17.0820701,4.75258441 16.4921516,5.34250288 16.4921516,6.07020419 C16.4921516,6.7979055 17.0820701,7.38782397 17.8097714,7.38782397 Z M11.9357374,15.616572 C9.9125535,15.616572 8.26340357,13.9759229 8.26340357,11.9442382 C8.26340357,9.92105427 9.90405272,8.27190435 11.9357374,8.27190435 C13.9674221,8.27190435 15.6080713,9.9125535 15.6080713,11.9442382 C15.6080713,13.9674221 13.9589213,15.616572 11.9357374,15.616572 Z" id="Shape"></path>
        </g>
    </g>
</svg>