<?xml version="1.0" encoding="UTF-8"?>
<svg width="24px" height="24px" viewBox="0 0 24 24" version="1.1" xmlns="http://www.w3.org/2000/svg" xmlns:xlink="http://www.w3.org/1999/xlink">
    <!-- Generator: Sketch 43.1 (39012) - http://www.bohemiancoding.com/sketch -->
    <title>linkedin</title>
    <desc>Created with Sketch.</desc>
    <defs></defs>
    <g id="Amoicons" stroke="none" stroke-width="1" fill="none" fill-rule="evenodd">
        <g id="linkedin" fill-rule="nonzero" fill="#000000">
            <path d="M8.76769231,8.30501931 L13.1253846,8.30501931 L13.1253846,10.3181467 L13.1846154,10.3181467 C13.7938462,9.16293436 15.2746154,7.94826255 17.4915385,7.94826255 C22.0946154,7.94826255 22.9492308,10.9891892 22.9492308,14.9474903 L22.9492308,23 L18.4053846,23 L18.4053846,15.8563707 C18.4053846,14.1490347 18.38,11.957529 16.0446154,11.957529 C13.6753846,11.957529 13.32,13.8177606 13.32,15.7289575 L13.32,23 L8.77615385,23 L8.76769231,8.30501931 L8.76769231,8.30501931 Z M1.35538462,8.30501931 L5.90769231,8.30501931 L5.90769231,23 L1.35538462,23 L1.35538462,8.30501931 Z M3.64,1 C5.09538462,1 6.28,2.18918919 6.28,3.65019305 C6.28,5.11119691 5.09538462,6.3003861 3.64,6.3003861 C2.17615385,6.3003861 1,5.11119691 1,3.65019305 C1,2.18918919 2.17615385,1 3.64,1 L3.64,1 Z" id="Shape"></path>
        </g>
    </g>
</svg>