<?xml version="1.0" encoding="UTF-8"?>
<svg width="24px" height="24px" viewBox="0 0 24 24" version="1.1" xmlns="http://www.w3.org/2000/svg" xmlns:xlink="http://www.w3.org/1999/xlink">
    <!-- Generator: Sketch 43.2 (39069) - http://www.bohemiancoding.com/sketch -->
    <title>linkedin</title>
    <desc>Created with Sketch.</desc>
    <defs></defs>
    <g id="Amoicons" stroke="none" stroke-width="1" fill="none" fill-rule="evenodd">
        <g id="linkedin" fill="#1A1918">
            <path d="M19.7475763,19.7469652 L16.4847635,19.7469652 L16.4847635,14.64099 C16.4847635,13.4236229 16.4639851,11.8573016 14.7894942,11.8573016 C13.0911692,11.8573016 12.8320509,13.1840607 12.8320509,14.5542098 L12.8320509,19.7469652 L9.5729048,19.7469652 L9.5729048,9.24778466 L12.7006584,9.24778466 L12.7006584,10.6833245 L12.7458818,10.6833245 C13.181005,9.85769049 14.2455902,8.9874441 15.8326898,8.9874441 C19.1370594,8.9874441 19.7475763,11.1612267 19.7475763,13.9889164 L19.7475763,19.7469652 Z M5.89391372,7.81346704 C4.84582905,7.81346704 4.00063891,6.96583238 4.00063891,5.92080336 C4.00063891,4.87638546 4.84582905,4.0287508 5.89391372,4.0287508 C6.93772049,4.0287508 7.78474402,4.87638546 7.78474402,5.92080336 C7.78474402,6.96583238 6.93772049,7.81346704 5.89391372,7.81346704 Z M4.25975722,19.7469652 L7.52623684,19.7469652 L7.52623684,9.24778466 L4.25975722,9.24778466 L4.25975722,19.7469652 Z M21.3725659,1 L2.62254507,1 C1.72724242,1 1,1.71013084 1,2.58648851 L1,21.4129004 C1,22.289258 1.72724242,23.0006111 2.62254507,23.0006111 L21.3725659,23.0006111 C22.2697019,23.0006111 23,22.289258 23,21.4129004 L23,2.58648851 C23,1.71013084 22.2697019,1 21.3725659,1 L21.3725659,1 Z" id="Shape"></path>
        </g>
    </g>
</svg>