<?xml version="1.0" encoding="UTF-8"?>
<svg width="29px" height="24px" viewBox="0 0 29 24" version="1.1" xmlns="http://www.w3.org/2000/svg" xmlns:xlink="http://www.w3.org/1999/xlink">
    <!-- Generator: Sketch 43.2 (39069) - http://www.bohemiancoding.com/sketch -->
    <title>twitter</title>
    <desc>Created with Sketch.</desc>
    <defs></defs>
    <g id="Amoicons" stroke="none" stroke-width="1" fill="none" fill-rule="evenodd">
        <g id="twitter" fill="#000000">
            <path d="M28.0709971,3.60431726 C27.0749579,4.04604416 26.0045549,4.34458857 24.8810773,4.47885929 C26.0278245,3.7914645 26.9084068,2.7030399 27.3231013,1.40617883 C26.2500248,2.04257847 25.0613922,2.50480246 23.7963165,2.75393603 C22.7831468,1.67452223 21.3397366,1 19.7423507,1 C16.6750173,1 14.1882365,3.48668185 14.1882365,6.55381721 C14.1882365,6.98910783 14.2374493,7.41301119 14.3321121,7.81948708 C9.71620953,7.58787999 5.62382414,5.37676998 2.88454302,2.01663531 C2.40647589,2.83691455 2.13258738,3.7909694 2.13258738,4.80879295 C2.13258738,6.73561739 3.11317952,8.43558768 4.60342608,9.43152787 C3.6929399,9.40271314 2.83661749,9.15288642 2.08773146,8.73690464 C2.08733538,8.76007525 2.08733538,8.78334489 2.08733538,8.80671354 C2.08733538,11.497673 4.00178235,13.7424497 6.54252896,14.2525993 C6.07644321,14.3795425 5.58580057,14.447371 5.07921576,14.447371 C4.72135855,14.447371 4.37340331,14.4126151 4.03435984,14.3477572 C4.74106347,16.5543123 6.79215764,18.1600158 9.22249728,18.2048718 C7.32171502,19.6944252 4.92692346,20.5823349 2.32488365,20.5823349 C1.87662145,20.5823349 1.43449847,20.5560947 1,20.5048025 C3.45786712,22.080602 6.37726508,23 9.51371423,23 C19.7293791,23 25.3156748,14.5370829 25.3156748,7.19784137 C25.3156748,6.95702545 25.3103278,6.71749678 25.2996336,6.47935439 C26.3846916,5.69630657 27.3263689,4.7180909 28.0709971,3.60431726" id="Shape"></path>
        </g>
    </g>
</svg>