<?xml version="1.0" encoding="UTF-8"?>
<svg width="24px" height="24px" viewBox="0 0 24 24" version="1.1" xmlns="http://www.w3.org/2000/svg" xmlns:xlink="http://www.w3.org/1999/xlink">
    <!-- Generator: Sketch 43.1 (39012) - http://www.bohemiancoding.com/sketch -->
    <title>twitter</title>
    <desc>Created with Sketch.</desc>
    <defs></defs>
    <g id="Amoicons" stroke="none" stroke-width="1" fill="none" fill-rule="evenodd">
        <g id="twitter" fill-rule="nonzero" fill="#000000">
            <path d="M23.2304615,5.13813235 C22.4125929,5.50155231 21.5342701,5.74684341 20.6107804,5.85593889 C21.5523369,5.29169987 22.2757024,4.39808979 22.6168863,3.33354031 C21.7350892,3.85539192 20.7594838,4.23618377 19.7206447,4.43978233 C18.8881837,3.55381589 17.7027258,3 16.3901057,3 C13.8711815,3 11.8303318,5.04154464 11.8303318,7.56046884 C11.8303318,7.91763492 11.8699397,8.26646249 11.9477657,8.6000028 C8.15721911,8.40960687 4.79680051,6.59389682 2.54679318,3.83454565 C2.15488332,4.50857502 1.92974361,5.29169987 1.92974361,6.12763526 C1.92974361,7.71056198 2.73510448,9.10587227 3.95808561,9.92443577 C3.21109429,9.90011512 2.50788014,9.69582169 1.8929152,9.35394287 C1.89222032,9.37270451 1.89222032,9.39285591 1.89222032,9.41092267 C1.89222032,11.6213221 3.46402903,13.4648272 5.55074058,13.8838372 C5.16855898,13.9873737 4.7655311,14.0436586 4.34930059,14.0436586 C4.05467332,14.0436586 3.76977431,14.0151687 3.49182405,13.9623581 C4.07135034,15.7732041 5.75642377,17.092078 7.75141174,17.1296013 C6.19141592,18.3525824 4.22491785,19.0828967 2.08817526,19.0828967 C1.71989117,19.0828967 1.3564712,19.0613556 1,19.0189682 C3.01791886,20.3114369 5.41523983,21.0667667 7.99114383,21.0667667 C16.3796826,21.0667667 20.9679464,14.1173154 20.9679464,8.08996408 C20.9679464,7.8926194 20.9623874,7.69527471 20.9540489,7.49931978 C21.8455744,6.85655981 22.6182761,6.05397845 23.2304615,5.13813235 Z" id="Shape"></path>
        </g>
    </g>
</svg>