<?xml version="1.0" encoding="UTF-8"?>
<svg width="33px" height="24px" viewBox="0 0 33 24" version="1.1" xmlns="http://www.w3.org/2000/svg" xmlns:xlink="http://www.w3.org/1999/xlink">
    <!-- Generator: Sketch 43.2 (39069) - http://www.bohemiancoding.com/sketch -->
    <title>youtube</title>
    <desc>Created with Sketch.</desc>
    <defs></defs>
    <g id="Amoicons" stroke="none" stroke-width="1" fill="none" fill-rule="evenodd">
        <g id="youtube" fill="#222321">
            <path d="M13.4104935,16.0572685 L13.4090543,7.26857436 L21.8608995,11.6782327 L13.4104935,16.0572685 Z M31.9671322,5.74604794 C31.9671322,5.74604794 31.6615184,3.59055181 30.7236085,2.64134222 C29.5341644,1.39552186 28.2009165,1.38933609 27.5895051,1.31642361 C23.2123985,1 16.6465091,1 16.6465091,1 L16.6329126,1 C16.6329126,1 10.0671763,1 5.68991666,1.31642361 C5.07847466,1.38933609 3.74571666,1.39552186 2.55584384,2.64134222 C1.61799525,3.59055181 1.31281014,5.74604794 1.31281014,5.74604794 C1.31281014,5.74604794 1,8.27731434 1,10.8085501 L1,13.1815894 C1,15.7127946 1.31281014,18.2440303 1.31281014,18.2440303 C1.31281014,18.2440303 1.61799525,20.3995571 2.55584384,21.3487667 C3.74571666,22.5946177 5.30869557,22.5552063 6.00483977,22.6857812 C8.50722903,22.9257401 16.6397415,23 16.6397415,23 C16.6397415,23 23.2123985,22.9901089 27.5895051,22.6737159 C28.2009165,22.6007728 29.5341644,22.5946177 30.7236085,21.3487667 C31.6615184,20.3995571 31.9671322,18.2440303 31.9671322,18.2440303 C31.9671322,18.2440303 32.279483,15.7127946 32.279483,13.1815894 L32.279483,10.8085501 C32.279483,8.27731434 31.9671322,5.74604794 31.9671322,5.74604794 L31.9671322,5.74604794 Z" id="Shape"></path>
        </g>
    </g>
</svg>